<?xml version="1.0" encoding="UTF-8"?>
<!DOCTYPE svg PUBLIC "-//W3C//DTD SVG 1.1//EN" "http://www.w3.org/Graphics/SVG/1.1/DTD/svg11.dtd">
<svg xmlns="http://www.w3.org/2000/svg" version="1.1" width="512px" height="512px" style="shape-rendering:geometricPrecision; text-rendering:geometricPrecision; image-rendering:optimizeQuality; fill-rule:evenodd; clip-rule:evenodd" xmlns:xlink="http://www.w3.org/1999/xlink">
<g><path style="opacity:0.95" fill="#000000" d="M 511.5,279.5 C 511.5,284.167 511.5,288.833 511.5,293.5C 509.524,299.413 506.024,304.413 501,308.5C 500.592,318.185 499.925,327.852 499,337.5C 494.831,358.506 482.998,373.506 463.5,382.5C 451.963,395.825 440.629,395.659 429.5,382C 411.263,373.089 399.596,358.755 394.5,339C 387.5,338.333 380.5,338.333 373.5,339C 398.127,361.547 407.127,389.214 400.5,422C 434.127,428.283 450.96,448.45 451,482.5C 450.215,484.286 449.049,485.786 447.5,487C 363.248,488.661 278.915,488.994 194.5,488C 140.447,480.072 100.947,451.905 76,403.5C 52.0777,345.964 58.7444,292.297 96,242.5C 105.966,218.926 99.4662,201.426 76.5,190C 60.6983,185.494 47.1983,189.327 36,201.5C 32.4589,206.796 29.2923,212.296 26.5,218C 20.66,221.416 15.4933,220.582 11,215.5C 5.43569,202.89 1.60236,189.89 -0.5,176.5C -0.5,165.5 -0.5,154.5 -0.5,143.5C 11.9837,75.5165 52.317,35.3498 120.5,23C 189.009,18.6548 237.509,47.4881 266,109.5C 274.184,131.496 277.184,154.162 275,177.5C 281.607,167.618 286.607,156.952 290,145.5C 292.574,130.606 294.24,115.606 295,100.5C 301.897,66.9654 319.73,41.1321 348.5,23C 353.757,21.5739 358.257,22.7406 362,26.5C 369.008,47.3559 375.508,68.3559 381.5,89.5C 418.216,93.7175 444.049,112.717 459,146.5C 466.698,166.94 467.365,187.606 461,208.5C 460.117,211.102 458.617,213.269 456.5,215C 436.05,221.682 415.05,224.848 393.5,224.5C 391.017,238.479 385.017,250.645 375.5,261C 378.883,264.928 382.383,268.761 386,272.5C 404.872,248.762 429.372,238.929 459.5,243C 482.745,247.093 500.078,259.259 511.5,279.5 Z M 136.5,42.5 C 182.853,44.7396 217.686,65.7396 241,105.5C 257.168,138.017 258.668,171.184 245.5,205C 226.143,221.354 206.477,237.354 186.5,253C 144.933,291.041 130.766,337.541 144,392.5C 153.289,423.944 171.456,448.778 198.5,467C 149.226,460.395 114.059,434.562 93,389.5C 78.7806,355.022 79.1139,320.688 94,286.5C 101.748,272.669 109.748,259.002 118,245.5C 126.893,217.897 120.06,195.063 97.5,177C 81.2578,167.134 63.9245,164.801 45.5,170C 36.928,173.201 29.428,178.034 23,184.5C 13.9621,125.744 35.4621,82.2436 87.5,54C 103.265,47.1514 119.599,43.3181 136.5,42.5 Z M 346.5,50.5 C 351.733,63.3905 356.066,76.7238 359.5,90.5C 347.298,91.2469 343.465,97.2469 348,108.5C 350.424,110.652 353.257,111.985 356.5,112.5C 390.121,106.068 416.288,117.068 435,145.5C 444.148,162.027 446.314,179.36 441.5,197.5C 415.797,204.289 390.13,204.123 364.5,197C 355.772,193.925 347.106,190.758 338.5,187.5C 332.081,188.085 328.415,191.585 327.5,198C 328.119,201.57 329.786,204.57 332.5,207C 345.364,213.121 358.698,217.955 372.5,221.5C 370.616,229.933 367.116,237.6 362,244.5C 358.638,238.158 353.472,235.992 346.5,238C 339.938,242.599 338.771,248.432 343,255.5C 355.167,269.667 367.333,283.833 379.5,298C 389.362,300.553 399.362,302.553 409.5,304C 415.617,307.913 415.951,312.246 410.5,317C 375.833,317.333 341.167,317.667 306.5,318C 299.226,319.717 296.393,324.217 298,331.5C 298.346,333.848 299.513,335.681 301.5,337C 310.425,338.233 319.425,339.233 328.5,340C 361.648,348.31 379.315,369.476 381.5,403.5C 379.289,437.546 361.623,458.712 328.5,467C 309.526,468.524 290.526,468.858 271.5,468C 225.958,465.658 192.458,444.491 171,404.5C 149.924,352.544 159.757,307.378 200.5,269C 226.122,249.046 251.456,228.713 276.5,208C 303.633,180.962 316.467,148.128 315,109.5C 318.173,85.8149 328.673,66.1483 346.5,50.5 Z M 444.5,262.5 C 463.206,262.771 478.372,270.104 490,284.5C 491.31,288.7 489.81,291.367 485.5,292.5C 465.897,290.225 446.231,289.392 426.5,290C 420.761,285.138 414.094,282.304 406.5,281.5C 416.807,270.347 429.473,264.013 444.5,262.5 Z M 440.5,310.5 C 453.519,310.854 466.519,311.521 479.5,312.5C 481.983,330.556 476.65,345.723 463.5,358C 457.918,361.04 452.418,364.207 447,367.5C 439.616,364.225 432.783,360.058 426.5,355C 422.142,350.137 418.809,344.637 416.5,338.5C 422.087,335.413 426.92,331.413 431,326.5C 433.897,321.912 435.397,316.912 435.5,311.5C 437.415,311.784 439.081,311.451 440.5,310.5 Z"/></g>
<g><path style="opacity:0.895" fill="#000000" d="M 382.5,145.5 C 395.361,145.568 399.527,151.568 395,163.5C 387.451,169.565 381.118,168.565 376,160.5C 374.387,153.737 376.553,148.737 382.5,145.5 Z"/></g>
</svg>
